<svg xmlns="http://www.w3.org/2000/svg" width="1024" height="1024" viewBox="0 0 1024 1024">
  <defs>
    <linearGradient id="bg" x1="0%" y1="0%" x2="100%" y2="100%">
      <stop offset="0%" style="stop-color:#8b5cf6"/>
      <stop offset="100%" style="stop-color:#7c3aed"/>
    </linearGradient>
    <linearGradient id="accent" x1="0%" y1="0%" x2="100%" y2="100%">
      <stop offset="0%" style="stop-color:#ec4899"/>
      <stop offset="100%" style="stop-color:#8b5cf6"/>
    </linearGradient>
  </defs>
  <rect width="1024" height="1024" rx="230" fill="url(#bg)"/>
  <!-- Vinyl disc -->
  <circle cx="512" cy="480" r="280" fill="none" stroke="rgba(255,255,255,0.15)" stroke-width="40"/>
  <circle cx="512" cy="480" r="200" fill="none" stroke="rgba(255,255,255,0.1)" stroke-width="20"/>
  <circle cx="512" cy="480" r="120" fill="none" stroke="rgba(255,255,255,0.08)" stroke-width="15"/>
  <circle cx="512" cy="480" r="50" fill="rgba(255,255,255,0.9)"/>
  <circle cx="512" cy="480" r="20" fill="#7c3aed"/>
  <!-- Waveform bars -->
  <g transform="translate(200, 780)" fill="url(#accent)" opacity="0.9">
    <rect x="0" y="-30" width="18" height="60" rx="9"/>
    <rect x="30" y="-50" width="18" height="100" rx="9"/>
    <rect x="60" y="-70" width="18" height="140" rx="9"/>
    <rect x="90" y="-45" width="18" height="90" rx="9"/>
    <rect x="120" y="-80" width="18" height="160" rx="9"/>
    <rect x="150" y="-60" width="18" height="120" rx="9"/>
    <rect x="180" y="-90" width="18" height="180" rx="9"/>
    <rect x="210" y="-55" width="18" height="110" rx="9"/>
    <rect x="240" y="-75" width="18" height="150" rx="9"/>
    <rect x="270" y="-40" width="18" height="80" rx="9"/>
    <rect x="300" y="-85" width="18" height="170" rx="9"/>
    <rect x="330" y="-65" width="18" height="130" rx="9"/>
    <rect x="360" y="-95" width="18" height="190" rx="9"/>
    <rect x="390" y="-50" width="18" height="100" rx="9"/>
    <rect x="420" y="-70" width="18" height="140" rx="9"/>
    <rect x="450" y="-35" width="18" height="70" rx="9"/>
    <rect x="480" y="-60" width="18" height="120" rx="9"/>
    <rect x="510" y="-80" width="18" height="160" rx="9"/>
    <rect x="540" y="-45" width="18" height="90" rx="9"/>
    <rect x="570" y="-55" width="18" height="110" rx="9"/>
    <rect x="600" y="-30" width="18" height="60" rx="9"/>
  </g>
  <!-- CueForge text -->
  <text x="512" y="920" text-anchor="middle" fill="rgba(255,255,255,0.95)" font-family="-apple-system, BlinkMacSystemFont, sans-serif" font-size="72" font-weight="700" letter-spacing="4">CUEFORGE</text>
</svg>